# xmcd CD database file
#
# Track frame offsets:
#	150
#	18112
#	40374
#	95022
#	111038
#	131030
#	163075
#	187695
#	280469
#
# Disc length: 4032 seconds
#
# Revision: 1
# Processed by: cddbd v1.5.1PL2 Copyright (c) Steve Scherf et al.
# Submitted via: CDex 1.51
#
DISCID=750fbe09
DTITLE=Ellington, Duke - Théâtre des Champs-Elysées 29.+30.01.1965 (Paris Jazz Concert Highlights)
DYEAR=1965
DGENRE=Jazz
TTITLE0=Boo-Dah
TTITLE1=Afrobossa
TTITLE2=Ad Lib On Nippon
TTITLE3=The Opener
TTITLE4=Chelsea Bridge
TTITLE5=Happy-Go-Lucky Local
TTITLE6=Satin Doll - Sophisticated Lady
TTITLE7=Black Brown and Beige
TTITLE8=Midriff
EXTD=YEAR: 1965
EXTT0=
EXTT1=
EXTT2=
EXTT3=
EXTT4=
EXTT5=
EXTT6=
EXTT7=
EXTT8=
PLAYORDER=
